<svg width="179" height="624" viewBox="0 0 179 624" fill="none" xmlns="http://www.w3.org/2000/svg">
<path d="M172.71 -135C70.6231 -113.38 17.4781 -73.688 13.2731 -15.926C6.96613 70.717 244.871 1.26001 149.631 182.074C54.3901 362.887 -31.6869 367.364 13.2731 480.074C58.2331 592.784 178.96 651.954 319.21 607.2C412.711 577.364 463.862 466.655 472.663 275.074" stroke="#D0D5F6" stroke-width="2"/>
<path d="M214.7 -135C134.617 -116.012 92.9261 -81.154 89.6281 -30.425C84.6801 45.668 271.307 -15.331 196.594 143.465C121.882 302.262 54.3601 306.192 89.6281 405.18C124.897 504.166 219.602 556.13 329.623 516.826C402.97 490.622 443.096 393.395 450 225.141" stroke="#D0D5F6" stroke-width="2"/>
<path d="M250.935 -137C190.331 -120.44 158.782 -90.037 156.285 -45.792C152.542 20.575 293.773 -32.627 237.234 105.872C180.694 244.372 129.596 247.799 156.286 334.133C182.976 420.468 254.645 465.789 337.904 431.509C393.41 408.655 423.775 323.855 429 177.108" stroke="#D0D5F6" stroke-width="2"/>
</svg>
