<svg width="224" height="308" viewBox="0 0 224 308" fill="none" xmlns="http://www.w3.org/2000/svg">
<mask id="mask0" mask-type="alpha" maskUnits="userSpaceOnUse" x="0" y="-65" width="224" height="373">
<rect y="-65" width="224" height="373" fill="#C4C4C4"/>
</mask>
<g mask="url(#mask0)">
<path d="M111.202 -121.872C53.4124 -109.684 23.328 -87.3078 20.9476 -54.7445C17.3773 -5.89951 152.051 -45.0559 98.1374 56.878C44.2232 158.811 -4.50345 161.335 20.9476 224.876C46.3986 288.416 114.74 321.773 194.133 296.543C247.062 279.723 276.018 217.311 281 109.307" stroke="#D0D5F6" stroke-width="2"/>
<path d="M134.972 -121.872C89.6382 -111.168 66.0377 -91.5168 64.1708 -62.9183C61.3698 -20.0209 167.016 -54.4091 124.722 35.1122C82.4292 124.634 44.2062 126.85 64.1708 182.654C84.1359 238.457 137.747 267.752 200.028 245.594C241.548 230.822 264.263 176.01 268.171 81.157" stroke="#D0D5F6" stroke-width="2"/>
<path d="M155.484 -123C121.177 -113.664 103.318 -96.5246 101.904 -71.5815C99.7853 -34.1671 179.734 -64.1597 147.728 13.9191C115.722 91.9985 86.796 93.9304 101.905 142.601C117.013 191.273 157.584 216.822 204.715 197.497C236.136 184.613 253.325 136.807 256.283 54.0784" stroke="#D0D5F6" stroke-width="2"/>
</g>
</svg>
