<svg width="423" height="660" viewBox="0 0 423 660" fill="none" xmlns="http://www.w3.org/2000/svg">
<mask id="mask0" mask-type="alpha" maskUnits="userSpaceOnUse" x="0" y="0" width="423" height="660">
<rect width="423" height="660" fill="#C4C4C4"/>
</mask>
<g mask="url(#mask0)">
<path d="M219.92 -107.972C119.492 -86.0441 67.2104 -45.7875 63.0737 12.796C56.8692 100.671 290.909 30.2265 197.216 213.612C103.523 396.997 18.8442 401.538 63.0737 515.851C107.303 630.164 226.069 690.175 364.04 644.785C456.022 614.524 506.342 502.241 515 307.935" stroke="#D0D5F6" stroke-width="2"/>
<path d="M261.228 -107.972C182.446 -88.7135 141.432 -53.3597 138.188 -1.90919C133.32 75.2661 316.915 13.3995 243.416 174.454C169.918 335.51 103.493 339.496 138.188 439.891C172.884 540.285 266.05 592.988 374.284 553.125C446.439 526.549 485.913 427.939 492.705 257.292" stroke="#D0D5F6" stroke-width="2"/>
<path d="M296.874 -110C237.255 -93.2045 206.219 -62.369 203.762 -17.4947C200.08 49.8162 339.016 -4.14249 283.396 136.326C227.775 276.796 177.507 280.272 203.763 367.834C230.02 455.397 300.524 501.363 382.43 466.595C437.035 443.416 466.906 357.41 472.046 208.576" stroke="#D0D5F6" stroke-width="2"/>
</g>
</svg>
