<svg width="184" height="620" viewBox="0 0 184 620" fill="none" xmlns="http://www.w3.org/2000/svg">
<mask id="mask0" mask-type="alpha" maskUnits="userSpaceOnUse" x="0" y="0" width="184" height="620">
<rect width="184" height="620" fill="#C4C4C4"/>
</mask>
<g mask="url(#mask0)">
<path d="M176.71 -137C74.6231 -115.38 21.4781 -75.688 17.2731 -17.926C10.9661 68.717 248.871 -0.73999 153.631 180.074C58.3901 360.887 -27.6869 365.364 17.2731 478.074C62.2331 590.784 182.96 649.954 323.21 605.2C416.711 575.364 467.862 464.655 476.663 273.074" stroke="#D0D5F6" stroke-width="2"/>
<path d="M218.7 -137C138.617 -118.012 96.9261 -83.154 93.6281 -32.425C88.6801 43.668 275.307 -17.331 200.594 141.465C125.882 300.262 58.3601 304.192 93.6281 403.18C128.897 502.166 223.602 554.13 333.623 514.826C406.97 488.622 447.096 391.395 454 223.141" stroke="#D0D5F6" stroke-width="2"/>
<path d="M254.935 -139C194.331 -122.44 162.782 -92.037 160.285 -47.792C156.542 18.575 297.773 -34.627 241.234 103.872C184.694 242.372 133.596 245.799 160.286 332.133C186.976 418.468 258.645 463.789 341.904 429.509C397.41 406.655 427.775 321.855 433 175.108" stroke="#D0D5F6" stroke-width="2"/>
</g>
</svg>
